<?xml version="1.0" encoding="iso-8859-1"?>
<!-- Generator: Adobe Illustrator 19.0.0, SVG Export Plug-In . SVG Version: 6.00 Build 0)  -->
<svg version="1.1" id="Layer_1" xmlns="http://www.w3.org/2000/svg" xmlns:xlink="http://www.w3.org/1999/xlink" x="0px" y="0px"
	 viewBox="0 0 512.002 512.002" style="enable-background:new 0 0 512.002 512.002;" xml:space="preserve">
<g>
	<path style="fill:#68DD92;" d="M182.748,141.516c-11.75-11.503-68.413-60.453-174.911-52.681c-2.173,0.159-3.775,2.107-3.517,4.268
		c0.678,5.674,4.325,15.515,21.319,16.59l0,0c-5.371,2.093-7.472,8.5-4.224,12.746c4.252,5.559,11.948,11.265,25.269,9.628
		c2.475-0.304,5.144-0.862,8.021-1.721c0,0-5.631,21.698,31.304,14.533c0,0-4.664,12.127,8.67,13.28s24.528-24.274,58.555-10.406
		c0,0,17.412,13.929,29.834-1.111C184.32,145.127,184.154,142.893,182.748,141.516z"/>
	<path style="fill:#68DD92;" d="M183.064,146.647c-12.424,15.04-29.834,1.112-29.834,1.112
		c-34.027-13.876-45.215,11.55-58.556,10.397c-13.33-1.153-8.664-13.279-8.664-13.279s-0.021,0-0.052,0.01
		c-36.87,7.134-31.256-14.535-31.256-14.535c-2.874,0.854-5.543,1.41-8.015,1.719c-13.331,1.637-21.026-4.066-25.27-9.635
		c-1.051-1.379-1.545-2.975-1.545-4.591c0-3.346,2.132-6.732,5.769-8.153C8.644,108.62,4.997,98.779,4.317,93.107
		c-0.258-2.162,1.35-4.118,3.523-4.272c67.508-4.931,114.989,12.94,143.7,29.616c16.586,9.625,26.908,18.859,31.204,23.069
		C184.156,142.889,184.321,145.123,183.064,146.647z"/>
	<path style="fill:#68DD92;" d="M158.546,179.114c-32.832,21.535-16.071,44.718-24.992,55.465
		c-6.037,7.257-11.827,4.818-14.948,2.471c-1.494-1.122-2.38-2.223-2.38-2.223c-15.205,35.309-31.822,18.869-31.822,18.869
		c-0.906,2.913-1.968,5.487-3.152,7.751c-6.356,12.229-16.143,15.719-23.756,16.357c-5.172,0.432-9.426-3.654-9.426-8.565
		c0-0.618,0.072-1.246,0.206-1.874c-11.023,13.897-22.211,11.725-27.835,9.254c-2.091-0.916-2.915-3.459-1.762-5.425
		c34.666-58.975,78.098-89.754,110.178-105.525c19.924-9.779,35.459-13.784,41.805-15.143c1.875-0.401,3.771,0.628,4.409,2.429
		C181.745,171.723,158.546,179.114,158.546,179.114z"/>
</g>
<path style="fill:#57C17B;" d="M180.152,152.202c12.804,11.108,71.781,68.165,74.784,178.961c0.062,2.274-1.883,4.105-4.152,3.904
	c-6.107-0.541-16.979-4.025-19.913-21.524l0,0c-1.663,5.591-8.26,7.929-13.12,4.696c-6.363-4.233-13.244-12.009-12.902-25.781
	c0.063-2.559,0.376-5.324,0.988-8.312c0,0-22.499,6.387-18.757-31.868c0,0-12.416,5.132-15.044-8.577s23.254-25.929,4.918-60.621
	c0,0-16.744-17.664-1.833-30.881C176.549,150.932,178.71,150.951,180.152,152.202z"/>
<path style="fill:#68DD92;" d="M183.296,151.518c6.326-12.598,27.641-63.893-0.563-137.706c-0.951-2.488-3.928-3.59-6.208-2.208
	c-3.846,2.332-8.297,7.47-5.664,18.461l0,0c-2.746-3.462-7.923-3.557-10.308-0.222c-3.122,4.367-5.577,11.288-1.374,20.675
	c0.781,1.744,1.791,3.573,3.07,5.487c0,0-17.195,0.765-3.615,26.2c0,0-9.952-0.683-7.795,9.341
	c2.158,10.025,23.344,12.494,20.83,40.539c0,0-5.998,15.126,6.562,21.164C180.107,154.15,182.364,153.375,183.296,151.518z"/>
<path style="fill:#57C17B;" d="M177.527,135.945c15.131-5.885,86.946-29.255,178.714,15.395c2.117,1.03,2.818,3.677,1.503,5.628
	c-3.219,4.778-10.761,11.682-25.995,6.712l0,0c3.871,3.751,2.994,10.162-1.73,12.76c-6.212,3.416-15.578,5.747-26.78-0.459
	c-2.077-1.15-4.217-2.594-6.412-4.379c0,0-4.406,21.202-34.259,1.71c0,0-1.109,12.391-13.511,8.662
	c-12.402-3.728-11.341-30.211-47.742-30.059c0,0-21.383,6.062-26.077-11.347C174.723,138.66,175.683,136.662,177.527,135.945z"/>
<path style="fill:#CCA576;" d="M180.612,153.955c-24.137,101.562-23.396,325.356-23.396,325.356h-40.805
	c7.541-169.647,43.494-301.35,52.22-328.671c0.835-2.635,3.276-4.313,5.913-4.313c0.556,0,1.123,0.072,1.69,0.237
	c0.041,0.01,0.082,0.021,0.123,0.031C179.5,147.542,181.375,150.764,180.612,153.955z"/>
<path style="fill:#AF8B64;" d="M180.612,153.955c-24.137,101.562-23.396,325.356-23.396,325.356h-19.563
	c-1.556-159.065,27.65-293.629,38.58-332.747c0.041,0.01,0.082,0.021,0.123,0.031C179.5,147.542,181.375,150.764,180.612,153.955z"
	/>
<path style="fill:#E8BF89;" d="M469.427,455.503c-21.341,0-21.341,21.299-42.682,21.299c-21.342,0-21.342-21.299-42.684-21.299
	c-21.342,0-21.342,21.299-42.685,21.299c-21.342,0-21.342-21.299-42.683-21.299c-21.339,0-21.339,21.299-42.678,21.299
	c-21.342,0-21.342-21.299-42.684-21.299s-21.342,21.299-42.684,21.299c-21.343,0-21.343-21.299-42.686-21.299
	c-21.342,0-21.342,21.299-42.685,21.299c-21.345,0-21.345-21.299-42.691-21.299c-17.972,0-35.944,15.099-41.176,19.871
	c-1.002,0.914-1.55,2.247-1.378,3.591c1.58,12.351,16.553,22.036,34.791,22.036H477.18c18.238,0,33.211-9.685,34.79-22.036
	c0.172-1.344-0.375-2.677-1.377-3.591C505.362,470.602,487.394,455.503,469.427,455.503z"/>
<g>
	<path style="fill:#CCA576;" d="M320.773,476.802c4.133,0,7.46-0.805,10.302-2.093c-11.834-5.364-15.173-19.206-32.382-19.206
		c-4.133,0-7.459,0.805-10.301,2.093C300.226,462.96,303.565,476.802,320.773,476.802z"/>
	<path style="fill:#CCA576;" d="M406.142,476.802c4.133,0,7.46-0.805,10.302-2.093c-11.834-5.364-15.173-19.206-32.382-19.206
		c-4.133,0-7.46,0.805-10.302,2.093C385.594,462.959,388.933,476.802,406.142,476.802z"/>
	<path style="fill:#CCA576;" d="M235.411,476.802c4.133,0,7.459-0.805,10.301-2.093c-11.834-5.364-15.173-19.206-32.381-19.206
		c-4.133,0-7.46,0.805-10.302,2.093C214.864,462.959,218.203,476.802,235.411,476.802z"/>
	<path style="fill:#CCA576;" d="M64.673,476.802c4.133,0,7.459-0.804,10.301-2.092c-11.837-5.363-15.176-19.207-32.388-19.207
		c-3.747,0-7.492,0.663-11.123,1.745C43.974,462.327,47.07,476.802,64.673,476.802z"/>
	<path style="fill:#CCA576;" d="M150.044,476.802c4.133,0,7.459-0.805,10.302-2.093c-11.836-5.364-15.174-19.207-32.384-19.207
		c-4.133,0-7.46,0.805-10.302,2.093C129.495,462.959,132.833,476.802,150.044,476.802z"/>
	<path style="fill:#CCA576;" d="M510.592,475.374c-5.231-4.773-23.198-19.871-41.166-19.871c-3.743,0-6.82,0.665-9.48,1.746
		c13.782,4.109,25.903,14.349,30.043,18.126c1.002,0.914,1.549,2.247,1.377,3.591c-1.579,12.35-16.552,22.035-34.79,22.035h20.604
		c18.238,0,33.211-9.685,34.79-22.036C512.142,477.621,511.594,476.288,510.592,475.374z"/>
</g>
<circle style="fill:#FFD066;" cx="389.711" cy="292.121" r="53.842"/>
<path style="fill:#FCBE42;" d="M389.712,238.283c-3.419,0-6.758,0.333-10,0.942c24.956,4.69,43.842,26.583,43.842,52.9
	c0,26.318-18.887,48.211-43.842,52.9c3.242,0.609,6.581,0.942,10,0.942c29.736,0,53.842-24.106,53.842-53.842
	C443.555,262.389,419.449,238.283,389.712,238.283z"/>
<path style="fill:#AF8B64;" d="M194.026,144.554c-1.94,9.663-11.355,15.925-21.029,13.987s-15.943-11.342-14.003-21.005
	s11.355-15.925,21.029-13.987C189.697,125.486,195.966,134.891,194.026,144.554z"/>
<path style="fill:#E8B551;" d="M206.003,167.198c-1.94,9.663-11.355,15.925-21.029,13.987c-9.674-1.938-15.943-11.342-14.003-21.005
	s11.355-15.925,21.029-13.987S207.943,157.536,206.003,167.198z"/>
<path style="fill:#FFD066;" d="M171.213,158.975c-1.94,9.663-11.355,15.925-21.029,13.987s-15.943-11.342-14.003-21.005
	c1.94-9.663,11.355-15.925,21.029-13.987S173.153,149.313,171.213,158.975z"/>
<g>
	<path style="fill:#FF9C4A;" d="M389.712,220.367c-4.143,0-7.5-3.358-7.5-7.5v-11.51c0-4.142,3.357-7.5,7.5-7.5s7.5,3.358,7.5,7.5
		v11.51C397.212,217.009,393.854,220.367,389.712,220.367z"/>
	<path style="fill:#FF9C4A;" d="M389.712,390.393c-4.143,0-7.5-3.358-7.5-7.5v-11.51c0-4.142,3.357-7.5,7.5-7.5s7.5,3.358,7.5,7.5
		v11.51C397.212,387.035,393.854,390.393,389.712,390.393z"/>
	<path style="fill:#FF9C4A;" d="M445.757,243.581c-1.919,0-3.839-0.732-5.303-2.196c-2.93-2.929-2.93-7.678-0.001-10.606
		l8.138-8.139c2.931-2.929,7.68-2.929,10.606,0c2.93,2.929,2.93,7.678,0.001,10.606l-8.138,8.139
		C449.596,242.849,447.676,243.581,445.757,243.581z"/>
	<path style="fill:#FF9C4A;" d="M325.529,363.808c-1.919,0-3.839-0.732-5.304-2.197c-2.929-2.929-2.929-7.678,0-10.606l8.139-8.139
		c2.93-2.929,7.678-2.929,10.607,0s2.929,7.678,0,10.606l-8.139,8.139C329.368,363.075,327.448,363.808,325.529,363.808z"/>
	<path style="fill:#FF9C4A;" d="M480.48,299.625h-11.51c-4.143,0-7.5-3.358-7.5-7.5s3.357-7.5,7.5-7.5h11.51
		c4.143,0,7.5,3.358,7.5,7.5S484.623,299.625,480.48,299.625z"/>
	<path style="fill:#FF9C4A;" d="M310.454,299.625h-11.51c-4.143,0-7.5-3.358-7.5-7.5s3.357-7.5,7.5-7.5h11.51
		c4.143,0,7.5,3.358,7.5,7.5S314.597,299.625,310.454,299.625z"/>
	<path style="fill:#FF9C4A;" d="M453.895,363.808c-1.92,0-3.839-0.732-5.304-2.197l-8.138-8.139
		c-2.929-2.929-2.929-7.678,0.001-10.606c2.929-2.93,7.678-2.927,10.606,0l8.138,8.139c2.929,2.929,2.929,7.678-0.001,10.606
		C457.733,363.076,455.813,363.808,453.895,363.808z"/>
	<path style="fill:#FF9C4A;" d="M333.668,243.581c-1.919,0-3.839-0.732-5.304-2.197l-8.139-8.139c-2.929-2.929-2.929-7.678,0-10.606
		c2.93-2.929,7.678-2.929,10.607,0l8.139,8.139c2.929,2.929,2.929,7.678,0,10.606C337.507,242.849,335.587,243.581,333.668,243.581z
		"/>
</g>
<g>
</g>
<g>
</g>
<g>
</g>
<g>
</g>
<g>
</g>
<g>
</g>
<g>
</g>
<g>
</g>
<g>
</g>
<g>
</g>
<g>
</g>
<g>
</g>
<g>
</g>
<g>
</g>
<g>
</g>
</svg>
