<?xml version="1.0"?>
<svg xmlns="http://www.w3.org/2000/svg" xmlns:xlink="http://www.w3.org/1999/xlink" version="1.1" id="Capa_1" x="0px" y="0px" viewBox="0 0 328 328" style="enable-background:new 0 0 328 328;" xml:space="preserve" width="512px" height="512px" class=""><g><path style="fill:#FFC900" d="M277.6,249.4H288c18.4,0,33.6-15.2,33.6-33.6V72.2c0-18.4-15.2-34-33.6-34H40  c-18.4,0-33.6,15.2-33.6,34v143.6c0,18.4,15.2,33.6,33.6,33.6h133.2H184H277.6z" data-original="#01A9BB" class="" data-old_color="#01A9BB"/><path style="fill:#F8B72B" d="M28.8,215.8V72.2c0-18.4,15.2-34,33.6-34H40c-18.4,0-33.6,15.2-33.6,34v143.6  c0,18.4,15.2,33.6,33.6,33.6h22.8C44,249.4,28.8,234.2,28.8,215.8z" data-original="#27BDC1" class="active-path" data-old_color="#E9BA0E"/><rect x="184" y="207" style="fill:#FF6D00" width="93.6" height="82.4" data-original="#F8B72B" class="" data-old_color="#F8B72B"/><rect x="184" y="207" style="fill:#FF6D00" width="17.6" height="82.4" data-original="#F7C869" class="" data-old_color="#FF8400"/><g>
	<path style="fill:#231F20" d="M288,32.2H40c-22,0-40,18-40,40v143.6c0,22,18,40,40,40h138v34c0,3.2,2.8,6,6,6h93.6   c3.2,0,6-2.8,6-6v-34h4.4c22,0,40-18,40-40V72.2C328,50.2,310,32.2,288,32.2z M12,83.4h304v28.4H12V83.4z M40,44.2h248   c14.8,0,26.8,12,27.6,26.8H12.4C12.8,56.2,24.8,44.2,40,44.2z M271.2,283.4H190v-70h81.2V283.4z M202.8,201   c3.2-12.4,14.4-21.6,27.6-21.6s24.4,9.2,27.6,21.6H202.8z M288,243.4h-4.4v-36c0-3.2-2.8-6-6-6h-6.4c-3.6-19.2-20.4-33.6-40.4-33.6   s-36.8,14.8-40.4,33.6H184c-3.2,0-6,2.8-6,6v36H40c-15.2,0-27.6-12.4-27.6-27.6v-92H316v92C316,231,303.6,243.4,288,243.4z" data-original="#231F20" class="" data-old_color=" rgb(35, 31, 32)"/>
	<path style="fill:#231F20" d="M82,207.8H34.8c-3.2,0-6,2.8-6,6s2.8,6,6,6H82c3.2,0,6-2.8,6-6S85.6,207.8,82,207.8z" data-original="#231F20" class="" data-old_color=" rgb(35, 31, 32)"/>
	<path style="fill:#231F20" d="M164,207.8h-47.2c-3.2,0-6,2.8-6,6s2.8,6,6,6H164c3.2,0,6-2.8,6-6S167.2,207.8,164,207.8z" data-original="#231F20" class="" data-old_color=" rgb(35, 31, 32)"/>
	<path style="fill:#231F20" d="M230.8,223.4c-3.2,0-6,2.8-6,6v32.8c0,3.2,2.8,6,6,6s6-2.8,6-6v-32.8   C236.8,226.2,234,223.4,230.8,223.4z" data-original="#231F20" class="" data-old_color=" rgb(35, 31, 32)"/>
</g></g> </svg>
