<?xml version="1.0" encoding="utf-8"?>
<!-- Generator: Adobe Illustrator 19.2.1, SVG Export Plug-In . SVG Version: 6.00 Build 0)  -->
<svg version="1.1" id="Layer_1" xmlns="http://www.w3.org/2000/svg" xmlns:xlink="http://www.w3.org/1999/xlink" x="0px" y="0px"
	 viewBox="0 0 1100.2 794.5" style="enable-background:new 0 0 1100.2 794.5;" xml:space="preserve">
<style type="text/css">
	.st0{fill:#35567B;}
	.st1{fill:none;stroke:#3D6995;stroke-width:32.5675;stroke-linecap:round;stroke-linejoin:round;stroke-miterlimit:10;}
	.st2{fill:none;stroke:#35567B;stroke-width:32.5675;stroke-linecap:round;stroke-linejoin:round;stroke-miterlimit:10;}
	.st3{fill:#F062A0;}
	.st4{fill:#FBE90C;}
	.st5{fill:#F29320;}
	.st6{fill:#39A9E0;}
	.st7{fill:#6A767D;}
	.st8{fill:#EBA387;}
	.st9{fill:#F9B092;}
	.st10{fill:#657C8E;}
	.st11{fill:#FDEC0A;}
	.st12{opacity:0.17;fill:#1D1D1B;}
	.st13{fill:#CCC6E3;}
	.st14{opacity:0.11;fill:#1D1D1B;}
	.st15{fill:#A2DAD8;}
	.st16{fill:#91D3CC;}
	.st17{fill:#F9D084;}
	.st18{opacity:0.15;fill:#1D1D1B;}
	.st19{fill:#C9E7F9;}
	.st20{fill:#8DA6B8;}
	.st21{fill:#2569B3;}
	.st22{fill:#F7EB73;}
	.st23{fill:#2E7CC0;}
	.st24{fill:none;stroke:#2569B3;stroke-width:26.5683;stroke-linecap:round;stroke-linejoin:round;stroke-miterlimit:10;}
	.st25{fill:#E776A6;}
	.st26{fill:#C3D1EB;}
	.st27{fill:#93A0C2;}
	.st28{fill:#AEAEC5;}
	.st29{fill:#FFFFFF;}
	.st30{fill:#F0E1C9;}
	.st31{fill:#EDF1FA;}
	.st32{fill:#AF6A4B;}
	.st33{fill:#BA7C64;}
	.st34{fill:#78CDD3;}
	.st35{fill:#2D9497;}
	.st36{fill:#FBC4A9;}
	.st37{fill:#F89E73;}
	.st38{fill:#1D737D;}
	.st39{fill:#15666F;}
	.st40{fill:#30858E;}
	.st41{fill:#0E6670;}
	.st42{fill:#C3D1EB;stroke:#1D737D;stroke-width:3.7206;stroke-miterlimit:10;}
	.st43{fill:none;stroke:#1D737D;stroke-width:3.7206;stroke-miterlimit:10;}
	.st44{fill:#C3D1EB;stroke:#1D737D;stroke-width:3.9049;stroke-miterlimit:10;}
	.st45{fill:none;stroke:#1D737D;stroke-width:3.9049;stroke-miterlimit:10;}
	.st46{fill:#C3D1EB;stroke:#1D737D;stroke-width:3.3241;stroke-miterlimit:10;}
	.st47{fill:none;stroke:#FFFFFF;stroke-width:7.7614;stroke-linecap:round;stroke-linejoin:round;stroke-miterlimit:10;}
	.st48{fill:none;stroke:#FFFFFF;stroke-width:8.0581;stroke-linecap:round;stroke-linejoin:round;stroke-miterlimit:10;}
	.st49{fill:none;stroke:#30858E;stroke-width:7.7614;stroke-linecap:round;stroke-linejoin:round;stroke-miterlimit:10;}
	.st50{fill:#D6DEB1;}
	.st51{fill:#B8C08E;}
	.st52{fill:#E4885B;}
	.st53{fill:#FAB999;}
	.st54{fill:#C3D1EB;stroke:#1D737D;stroke-width:4.2625;stroke-miterlimit:10;}
	.st55{fill:none;stroke:#1D737D;stroke-width:4.2625;stroke-miterlimit:10;}
	.st56{fill:none;stroke:#FAB999;stroke-width:7.7614;stroke-linecap:round;stroke-linejoin:round;stroke-miterlimit:10;}
	.st57{fill:#37ADB3;}
	.st58{fill:#297F83;}
	.st59{fill:none;stroke:#FFFFFF;stroke-width:12.0871;stroke-linecap:round;stroke-linejoin:round;stroke-miterlimit:10;}
	.st60{fill:none;stroke:#C3D1EB;stroke-width:14.7731;stroke-linecap:round;stroke-linejoin:round;stroke-miterlimit:10;}
	.st61{fill:#CCE3F6;}
	.st62{fill:#B5D5F0;}
	.st63{fill:#B6C6E6;}
	.st64{fill:#AED0EE;}
	.st65{fill:#C3DDF4;}
	.st66{fill:#AED24E;}
	.st67{fill:#08ACBA;}
	.st68{fill:#067D87;}
	.st69{fill:#6096C7;}
	.st70{fill:none;stroke:#6096C7;stroke-width:19.4787;stroke-linecap:round;stroke-linejoin:round;stroke-miterlimit:10;}
	.st71{fill:#7D9C3D;}
	.st72{fill:#ADD1EF;}
	.st73{fill:#BBC5CB;}
	.st74{fill:#A4B2B8;}
	.st75{fill:#96B540;}
	.st76{fill:none;stroke:#9CC1E5;stroke-width:6.9567;stroke-linecap:round;stroke-linejoin:round;stroke-miterlimit:10;}
	.st77{fill:none;stroke:#6096C7;stroke-width:18.0873;stroke-linecap:round;stroke-linejoin:round;stroke-miterlimit:10;}
	.st78{fill:none;stroke:#AF6A4B;stroke-width:15.0125;stroke-linecap:round;stroke-linejoin:round;stroke-miterlimit:10;}
	.st79{fill:none;stroke:#BA7C64;stroke-width:16.4465;stroke-linecap:round;stroke-linejoin:round;stroke-miterlimit:10;}
	.st80{fill:none;stroke:#AF6A4B;stroke-width:14.4833;stroke-linecap:round;stroke-linejoin:round;stroke-miterlimit:10;}
	.st81{fill:none;stroke:#AF6A4B;stroke-width:15.7073;stroke-linecap:round;stroke-linejoin:round;stroke-miterlimit:10;}
	.st82{fill:#F9C6D6;}
	.st83{fill:#F29BB3;}
	.st84{fill:none;stroke:#D890BE;stroke-width:17.7404;stroke-linecap:round;stroke-linejoin:round;stroke-miterlimit:10;}
	.st85{fill:none;stroke:#F8C3DA;stroke-width:21.7533;stroke-linecap:round;stroke-linejoin:round;stroke-miterlimit:10;}
	.st86{fill:none;stroke:#F8C3DA;stroke-width:16.8066;stroke-linecap:round;stroke-linejoin:round;stroke-miterlimit:10;}
	.st87{fill:none;stroke:#F8C3DA;stroke-width:19.9405;stroke-linecap:round;stroke-linejoin:round;stroke-miterlimit:10;}
	.st88{fill:none;stroke:#F8C3DA;stroke-width:16.315;stroke-linecap:round;stroke-linejoin:round;stroke-miterlimit:10;}
	.st89{fill:none;stroke:#D890BE;stroke-width:24.4725;stroke-linecap:round;stroke-linejoin:round;stroke-miterlimit:10;}
	.st90{fill:none;stroke:#D890BE;stroke-width:22.6597;stroke-linecap:round;stroke-linejoin:round;stroke-miterlimit:10;}
	.st91{fill:none;stroke:#F8C3DA;stroke-width:23.5661;stroke-linecap:round;stroke-linejoin:round;stroke-miterlimit:10;}
	.st92{fill:none;stroke:#D890BE;stroke-width:21.7533;stroke-linecap:round;stroke-linejoin:round;stroke-miterlimit:10;}
	.st93{fill:none;stroke:#D890BE;stroke-width:19.0342;stroke-linecap:round;stroke-linejoin:round;stroke-miterlimit:10;}
	.st94{fill:#D890BE;stroke:#D890BE;stroke-width:14.5022;stroke-linecap:round;stroke-linejoin:round;stroke-miterlimit:10;}
	.st95{fill:#D890BE;stroke:#D890BE;stroke-width:12.6894;stroke-linecap:round;stroke-linejoin:round;stroke-miterlimit:10;}
	.st96{fill:none;stroke:#A7CF48;stroke-width:15.4086;stroke-linecap:round;stroke-linejoin:round;stroke-miterlimit:10;}
	.st97{fill:none;stroke:#F8C3DA;stroke-width:15.4086;stroke-linecap:round;stroke-linejoin:round;stroke-miterlimit:10;}
	.st98{fill:#D890BE;stroke:#D890BE;stroke-width:18.1278;stroke-linecap:round;stroke-linejoin:round;stroke-miterlimit:10;}
	.st99{fill:#FBF062;}
	.st100{fill:#F8B232;}
	.st101{fill:none;stroke:#669ED3;stroke-width:24.9538;stroke-linecap:round;stroke-linejoin:round;stroke-miterlimit:10;}
	.st102{fill:none;stroke:#669ED3;stroke-width:24.5417;stroke-linecap:round;stroke-linejoin:round;stroke-miterlimit:10;}
	.st103{fill:none;stroke:#ADD1EF;stroke-width:24.5417;stroke-linecap:round;stroke-linejoin:round;stroke-miterlimit:10;}
	.st104{fill:#97C5EA;}
	.st105{fill:#A53C92;stroke:#669ED3;stroke-width:24.5417;stroke-linecap:round;stroke-linejoin:round;stroke-miterlimit:10;}
	.st106{fill:none;stroke:#F68C3A;stroke-width:24.5417;stroke-linecap:round;stroke-linejoin:round;stroke-miterlimit:10;}
	.st107{fill:none;stroke:#97C5EA;stroke-width:24.5417;stroke-linecap:round;stroke-linejoin:round;stroke-miterlimit:10;}
	.st108{fill:#7E5342;}
	.st109{fill:#996652;}
	.st110{fill:#F8C3DA;}
	.st111{opacity:0.69;fill:#D890BE;}
	.st112{opacity:0.56;fill:#FFFFFF;}
	.st113{fill:#DCE5F4;}
	.st114{fill:#CAD5ED;}
	.st115{fill:#ECF0F9;}
	.st116{fill:#D6DFF2;}
	.st117{fill:#80C348;}
	.st118{fill:#80C343;}
	.st119{fill:#08A186;}
	.st120{fill:#09939F;}
	.st121{fill:#24B786;}
	.st122{fill:#F27085;}
	.st123{fill:#EC697B;}
	.st124{fill:none;stroke:#08ACBA;stroke-width:54.4622;stroke-linecap:round;stroke-linejoin:round;stroke-miterlimit:10;}
	.st125{fill:#8EC74F;}
	.st126{fill:#F26965;}
	.st127{fill:none;stroke:#FFFFFF;stroke-width:12.2597;stroke-miterlimit:10;}
	.st128{opacity:0.13;fill:#1D1D1B;}
	.st129{fill:#96CB60;}
	.st130{fill:#FDEF40;}
	.st131{fill:#CE88BA;}
	.st132{fill:#98CBEE;}
	.st133{fill:#6B89C1;}
	.st134{fill:#C5DB65;}
	.st135{fill:#ADCF54;}
	.st136{fill:none;stroke:#13815A;stroke-width:3.5086;stroke-miterlimit:10;}
	.st137{fill:#139266;}
	.st138{fill:#179E6F;}
	.st139{fill:#13815A;}
	.st140{fill:#B45749;}
	.st141{fill:none;stroke:#505170;stroke-width:4.5446;stroke-linecap:round;stroke-linejoin:round;stroke-miterlimit:10;}
	.st142{fill:none;stroke:#13815A;stroke-width:4.2623;stroke-miterlimit:10;}
	.st143{fill:#F04A58;}
	.st144{fill:#E83140;}
	.st145{fill:none;stroke:#505170;stroke-width:7.2918;stroke-linecap:round;stroke-linejoin:round;stroke-miterlimit:10;}
	.st146{fill:#505170;}
	.st147{fill:none;stroke:#505170;stroke-width:4.8612;stroke-linecap:round;stroke-linejoin:round;stroke-miterlimit:10;}
	.st148{fill:#FFD341;}
	.st149{fill:#FFCF2E;}
	.st150{fill:none;stroke:#505170;stroke-width:7.0591;stroke-linecap:round;stroke-linejoin:round;stroke-miterlimit:10;}
	.st151{fill:none;stroke:#505170;stroke-width:4.7061;stroke-linecap:round;stroke-linejoin:round;stroke-miterlimit:10;}
	.st152{fill:#8DD3D1;}
	.st153{fill:#DFF3FD;}
	.st154{fill:#AAE0FA;}
	.st155{fill:#B2E0E0;}
	.st156{fill:#C4E9FB;}
	.st157{fill:#72CEE8;}
	.st158{fill:#FDF05C;}
	.st159{fill:#E6E867;}
	.st160{fill:#B3D55F;}
	.st161{fill:#8AD4E2;}
	.st162{fill:none;stroke:#F8B232;stroke-width:11.2323;stroke-miterlimit:10;}
	.st163{fill:#D8E14B;}
	.st164{opacity:0.42;fill:#E1EFFA;}
	.st165{opacity:0.56;fill:#B5C736;}
	.st166{opacity:0.6;fill:#FFFFFF;}
	.st167{fill:#C5DFF4;}
	.st168{opacity:0.25;fill:#1D1D1B;}
	.st169{fill:#6C8DC8;}
	.st170{fill:#5F7CB1;}
	.st171{fill:#F7EA63;}
	.st172{fill:#7B9CD1;}
	.st173{fill:#A1DBE8;}
	.st174{fill:#E75B68;}
	.st175{fill:#F1F6FC;}
	.st176{opacity:0.82;fill:#E6E867;}
	.st177{opacity:0.56;}
	.st178{fill:#B5C736;}
	.st179{fill:#FEC776;}
	.st180{fill:#ACE1F7;}
	.st181{fill:#D88ABB;}
	.st182{fill:#70D0F6;}
	.st183{fill:none;stroke:#FFFFFF;stroke-width:32.7763;stroke-linecap:round;stroke-linejoin:round;stroke-miterlimit:10;}
	.st184{fill:none;stroke:#FFFFFF;stroke-width:39.0909;stroke-linecap:round;stroke-linejoin:round;stroke-miterlimit:10;}
	.st185{fill:none;stroke:#FEE25E;stroke-width:62.8461;stroke-linecap:round;stroke-linejoin:round;stroke-miterlimit:10;}
	.st186{fill:#58C3F0;}
	.st187{fill:none;stroke:#FEE25E;stroke-width:68.7236;stroke-linecap:round;stroke-linejoin:round;stroke-miterlimit:10;}
	.st188{fill:#FEE25E;}
	.st189{fill:none;stroke:#FFCF5F;stroke-width:47.9458;stroke-linecap:round;stroke-linejoin:round;stroke-miterlimit:10;}
	.st190{fill:#CA9E68;}
	.st191{fill:#B17F4A;}
	.st192{opacity:0.23;fill:#1D1D1B;}
	.st193{fill:#6DC497;}
	.st194{fill:#31AC66;}
	.st195{fill:none;stroke:#F89E73;stroke-width:37.0474;stroke-linecap:round;stroke-linejoin:round;stroke-miterlimit:10;}
	.st196{opacity:0.23;fill:#FFFFFF;}
	.st197{fill:none;stroke:#FFFFFF;stroke-width:35.1053;stroke-linecap:round;stroke-linejoin:round;stroke-miterlimit:10;}
	.st198{fill:none;stroke:#BABADD;stroke-width:44.7866;stroke-linecap:round;stroke-linejoin:round;stroke-miterlimit:10;}
	.st199{fill:none;stroke:#F89E73;stroke-width:43.4637;stroke-linecap:round;stroke-linejoin:round;stroke-miterlimit:10;}
	.st200{fill:none;stroke:#FEC776;stroke-width:49.9051;stroke-linecap:round;stroke-linejoin:round;stroke-miterlimit:10;}
	.st201{fill:#FFF2D8;}
	.st202{fill:#F47A55;}
	.st203{opacity:0.29;fill:#1D1D1B;}
	.st204{fill:#FAB070;}
	.st205{fill:#2DBAA3;}
	.st206{fill:#F59AA5;}
	.st207{fill:#1D1D1B;}
	.st208{opacity:0.22;fill:#1D1D1B;}
	.st209{fill:none;stroke:#9A684C;stroke-width:10.5705;stroke-miterlimit:10;}
	.st210{fill:none;stroke:#505170;stroke-width:3.4337;stroke-linecap:round;stroke-linejoin:round;stroke-miterlimit:10;}
	.st211{fill:none;stroke:#505170;stroke-width:5.8219;stroke-linecap:round;stroke-linejoin:round;stroke-miterlimit:10;}
	.st212{fill:none;stroke:#13815A;stroke-width:2.7629;stroke-miterlimit:10;}
	.st213{fill:#B5D565;}
	.st214{fill:#D0E073;}
	.st215{fill:#EBF0BA;}
	.st216{fill:#9A684C;}
	.st217{fill:#F2B998;}
	.st218{fill:none;}
	.st219{opacity:0.14;fill:#1D1D1B;}
	.st220{opacity:0.21;fill:#1D1D1B;}
	.st221{fill:#894E9F;}
	.st222{fill:#662C83;}
	.st223{fill:none;stroke:#AD7760;stroke-width:28.0403;stroke-linecap:round;stroke-linejoin:round;stroke-miterlimit:10;}
	.st224{fill:#F37546;}
	.st225{fill:#FEDE5D;}
	.st226{fill:#F58459;}
	.st227{fill:#F68B3B;}
	.st228{fill:#F69068;}
	.st229{fill:none;stroke:#13815A;stroke-width:3.2518;stroke-miterlimit:10;}
	.st230{fill:none;stroke:#FFFFFF;stroke-width:43.031;stroke-linecap:round;stroke-linejoin:round;stroke-miterlimit:10;}
	.st231{fill:#FBD5DD;}
	.st232{fill:#61BE72;}
	.st233{fill:#F7EB71;}
	.st234{fill:#F6B35C;}
	.st235{fill:#DC663F;}
	.st236{fill:none;stroke:#C7D54B;stroke-width:51.4716;stroke-linecap:round;stroke-linejoin:round;stroke-miterlimit:10;}
	.st237{fill:none;stroke:#C7D54B;stroke-width:53.6995;stroke-linecap:round;stroke-linejoin:round;stroke-miterlimit:10;}
	.st238{fill:#C7D54B;}
	.st239{fill:none;stroke:#B5E4FA;stroke-width:56.7283;stroke-linecap:round;stroke-linejoin:round;stroke-miterlimit:10;}
	.st240{fill:none;stroke:#91D7F4;stroke-width:54.3646;stroke-linecap:round;stroke-linejoin:round;stroke-miterlimit:10;}
	.st241{fill:none;stroke:#B5E4FA;stroke-width:54.3646;stroke-linecap:round;stroke-linejoin:round;stroke-miterlimit:10;}
	.st242{fill:none;stroke:#B5E4FA;stroke-width:47.2736;stroke-linecap:round;stroke-linejoin:round;stroke-miterlimit:10;}
	.st243{fill:#91D7F4;}
	.st244{fill:none;stroke:#C7D54B;stroke-width:30.4151;stroke-linecap:round;stroke-linejoin:round;stroke-miterlimit:10;}
	.st245{fill:#29BAA0;}
	.st246{fill:#455565;}
	.st247{fill:#95C13D;}
	.st248{fill:#AC4A6C;}
	.st249{fill:#A53C92;}
	.st250{fill:none;stroke:#6096C7;stroke-width:19.7002;stroke-linecap:round;stroke-linejoin:round;stroke-miterlimit:10;}
	.st251{fill:none;stroke:#A53C92;stroke-width:27.1789;stroke-linecap:round;stroke-linejoin:round;stroke-miterlimit:10;}
	.st252{fill:none;stroke:#A53C92;stroke-width:31;stroke-linecap:round;stroke-linejoin:round;stroke-miterlimit:10;}
	.st253{fill:none;stroke:#F7EB73;stroke-width:26.7301;stroke-linecap:round;stroke-linejoin:round;stroke-miterlimit:10;}
	.st254{fill:none;stroke:#F68C3A;stroke-width:26.7301;stroke-linecap:round;stroke-linejoin:round;stroke-miterlimit:10;}
	.st255{fill:none;stroke:#A53C92;stroke-width:26.7301;stroke-linecap:round;stroke-linejoin:round;stroke-miterlimit:10;}
	.st256{fill:#F68C3A;}
	.st257{fill:#A53C92;stroke:#A53C92;stroke-width:26.7301;stroke-linecap:round;stroke-linejoin:round;stroke-miterlimit:10;}
	.st258{fill:#CFC2E0;}
	.st259{fill:#BFB2D7;}
	.st260{fill:#A294C7;}
	.st261{fill:#AD9ECC;}
	.st262{fill:#DED5EA;}
	.st263{fill:#DED154;}
	.st264{fill:#4F6274;}
	.st265{fill:#C2D991;}
	.st266{fill:#A1AE88;}
	.st267{fill:#9EB177;}
	.st268{fill:#7B8A5D;}
	.st269{fill:#DEDC1F;stroke:#455565;stroke-width:5.5601;stroke-linecap:round;stroke-linejoin:round;stroke-miterlimit:10;}
	.st270{fill:none;stroke:#455565;stroke-width:3.7067;stroke-miterlimit:10;}
	.st271{fill:#9C9C9B;stroke:#455565;stroke-width:3.9562;stroke-linecap:round;stroke-linejoin:round;stroke-miterlimit:10;}
	.st272{fill:#DEDC1F;stroke:#455565;stroke-width:6.1782;stroke-linecap:round;stroke-linejoin:round;stroke-miterlimit:10;}
	.st273{fill:none;stroke:#455565;stroke-width:4.1188;stroke-miterlimit:10;}
	.st274{fill:#DBDADA;stroke:#455565;stroke-width:4.3961;stroke-linecap:round;stroke-linejoin:round;stroke-miterlimit:10;}
	.st275{fill:#C8567E;}
	.st276{fill:#D9E7A4;}
	.st277{fill:#FDEC0A;stroke:#455565;stroke-width:5.346;stroke-miterlimit:10;}
	.st278{fill:#C0E6ED;}
	.st279{fill:#7FA1A3;}
	.st280{fill:#AEDBDE;}
	.st281{fill:#717070;}
	.st282{fill:#DEDC1F;stroke:#455565;stroke-width:6.1322;stroke-linecap:round;stroke-linejoin:round;stroke-miterlimit:10;}
	.st283{fill:none;stroke:#455565;stroke-width:4.0882;stroke-miterlimit:10;}
	.st284{fill:#DBDADA;stroke:#455565;stroke-width:4.3633;stroke-linecap:round;stroke-linejoin:round;stroke-miterlimit:10;}
	.st285{fill:#9C9C9B;stroke:#455565;stroke-width:4.3633;stroke-linecap:round;stroke-linejoin:round;stroke-miterlimit:10;}
	.st286{fill:#5C7388;}
	.st287{fill:none;stroke:#455565;stroke-width:26.7301;stroke-linecap:round;stroke-linejoin:round;stroke-miterlimit:10;}
	.st288{fill:#F17922;}
	.st289{fill:#F89C58;}
	.st290{fill:none;stroke:#3D3D3C;stroke-width:3.9413;stroke-miterlimit:10;}
	.st291{fill:#3D3D3C;}
	.st292{fill:#A53C92;stroke:#A53C92;stroke-width:28;stroke-linecap:round;stroke-linejoin:round;stroke-miterlimit:10;}
	.st293{fill:#D2EEF7;}
	.st294{fill:#C0E7F2;}
	.st295{fill:#577699;}
	.st296{fill:none;stroke:#9D8EC4;stroke-width:21.4812;stroke-linecap:round;stroke-linejoin:round;stroke-miterlimit:10;}
	.st297{fill:none;stroke:#9D8EC4;stroke-width:16.7076;stroke-linecap:round;stroke-linejoin:round;stroke-miterlimit:10;}
	.st298{fill:#8F80BC;}
	.st299{fill:#FBAB28;}
	.st300{fill:none;stroke:#9D8EC4;stroke-width:19.2832;stroke-linecap:round;stroke-linejoin:round;stroke-miterlimit:10;}
	.st301{fill:none;stroke:#9D8EC4;stroke-width:14.998;stroke-linecap:round;stroke-linejoin:round;stroke-miterlimit:10;}
	.st302{fill:#9485BF;}
	.st303{fill:none;stroke:#455565;stroke-width:11.584;stroke-linecap:round;stroke-linejoin:round;stroke-miterlimit:10;}
	.st304{fill:#E8DB18;}
	.st305{fill:#FDEE1C;}
	.st306{fill:none;stroke:#BDDBF3;stroke-width:6.1335;stroke-linecap:round;stroke-linejoin:round;stroke-miterlimit:10;}
	.st307{fill:#E1F1FB;}
	.st308{fill:none;stroke:#445070;stroke-width:104.9949;stroke-linecap:round;stroke-linejoin:round;stroke-miterlimit:10;}
	.st309{fill:#445070;}
	.st310{fill:#FFD686;}
	.st311{fill:#B6C4E5;}
	.st312{fill:#FACD74;}
	.st313{fill:#FFE4B0;}
	.st314{fill:#C75869;}
	.st315{fill:none;stroke:#F27085;stroke-width:6.2994;stroke-linecap:round;stroke-linejoin:round;stroke-miterlimit:10;}
	.st316{fill:#F5C668;}
	.st317{fill:#E66678;}
	.st318{fill:#926940;}
	.st319{fill:#683E17;}
	.st320{fill:#ABD0EE;}
	.st321{fill:#85B0D9;}
	.st322{fill:#FCD0BB;}
	.st323{fill:#F9AFA4;}
	.st324{fill:#F69888;}
	.st325{fill:#526187;}
	.st326{fill:none;stroke:#F8A79A;stroke-width:2;stroke-miterlimit:10;}
	.st327{fill:none;stroke:#FABEB4;stroke-width:2;stroke-miterlimit:10;}
	.st328{fill:#F29320;stroke:#526187;stroke-width:1.7536;stroke-miterlimit:10;}
	.st329{fill:none;stroke:#FFFFFF;stroke-width:5.2559;stroke-linecap:round;stroke-linejoin:round;stroke-miterlimit:10;}
	.st330{fill:none;stroke:#FAB999;stroke-width:5.2559;stroke-linecap:round;stroke-linejoin:round;stroke-miterlimit:10;}
	.st331{fill:#A7D9C1;}
	.st332{fill:#75C69A;}
	.st333{fill:#EC697A;}
	.st334{fill:none;stroke:#A7D9C1;stroke-width:2;stroke-miterlimit:10;}
	.st335{fill:none;stroke:#75C69A;stroke-width:2;stroke-miterlimit:10;}
	.st336{fill:none;stroke:#B8C08E;stroke-width:2;stroke-miterlimit:10;}
	.st337{fill:#F8ED87;}
	.st338{fill:#F8F4C7;}
	.st339{fill:none;stroke:#F8B2B3;stroke-width:1.169;stroke-linecap:round;stroke-linejoin:round;stroke-miterlimit:10;}
	.st340{fill:#6C7EB1;}
	.st341{fill:#C9E0F4;}
	.st342{fill:#8DB5DF;}
	.st343{fill:#E86778;}
</style>
<g>
	<path class="st29" d="M401.1,172h133.5c18.5,0,33.5-15,33.5-33.5v-3.6c0-18.5-15-33.5-33.5-33.5H401.1c-18.5,0-33.5,15-33.5,33.5
		v3.6C367.6,157,382.6,172,401.1,172z"/>
	<path class="st153" d="M242.8,230.4c0-17.4-13.4-31.6-29.8-31.6h778.3c-16.5,0,15.2,14.1,15.2,31.6s13.4,31.6,29.8,31.6H212.9
		C229.4,261.9,242.8,247.8,242.8,230.4z"/>
	<path class="st154" d="M179.2,403.2c0-20.5-16.9-37.1-37.7-37.1H990c-20.8,0-37.7,16.6-37.7,37.1c0,20.5,16.9,37.1,37.7,37.1H141.5
		C162.4,440.3,179.2,423.7,179.2,403.2z"/>
	<path class="st154" d="M106.2,557h908.3c29.5,0,53.4-23.9,53.4-53.4v-12c0-29.5-23.9-53.4-53.4-53.4H106.2
		c-29.5,0-53.4,23.9-53.4,53.4v12C52.7,533.1,76.7,557,106.2,557z"/>
	<path class="st155" d="M1067.9,683.9v5.8c0,30.3-22.6,54.9-50.6,54.9H108.8c-15-1.4-28.8-6.9-40.7-15.4
		c-21.7-15.7-36.6-41.7-38.5-71.6c-0.1-2.3-0.2-4.6-0.2-6.9V629h989.9c2.2,0,4.4,0.1,6.5,0.3c1.6,0.2,3.1,0.4,4.7,0.7
		c2.1,0.4,4.2,0.9,6.2,1.6c0.2,0.1,0.5,0.2,0.7,0.2C1056.1,638.3,1068.9,655.6,1067.9,683.9z"/>
	<path class="st153" d="M224.4,161.8H35.7C16,161.8,0,177.8,0,197.5v6.3c0,19.7,16,35.7,35.7,35.7h271.5
		C280.6,212.4,253.3,186.1,224.4,161.8z"/>
	<path class="st156" d="M143.4,367.2H989c28.3,0,51.2-22.9,51.2-51.2v-4c0-28.3-22.9-51.2-51.2-51.2H152.4
		c-28.3,0-90.2-32.1-90.2-3.8l2,63C64.2,348.3,94.2,367.2,143.4,367.2z"/>
	<path class="st153" d="M155,200.6l562.7,38.8c23.9,0,7.7-29.9,7.7-55.2l-27-41.6c0-25.2-130.4-55.4-154.3-55.4H160.4
		c-23.9,0-43.2,20.5-43.2,45.7v0C117.1,158.3,118.3,202,155,200.6z"/>
	<path class="st29" d="M136.2,637.3h32.4c15.5,0,28-12.5,28-28v-3c0-15.5-12.5-28-28-28h-32.4c-15.5,0-28,12.5-28,28v3
		C108.1,624.8,120.7,637.3,136.2,637.3z"/>
	<path class="st29" d="M929.3,350.4h27.8c13.3,0,24-10.7,24-24v-2.6c0-13.3-10.7-24-24-24h-27.8c-13.3,0-24,10.7-24,24v2.6
		C905.3,339.7,916,350.4,929.3,350.4z"/>
	<path class="st29" d="M274.3,260.8h300.5c15.5,0,28-12.5,28-28v-3c0-15.5-12.5-28-28-28H274.3c-15.5,0-28,12.5-28,28v3
		C246.3,248.3,258.9,260.8,274.3,260.8z"/>
	<path class="st29" d="M163.4,308.7h225.5c13.6,0,24.6-11,24.6-24.6v-9.8c0-13.6-11-24.6-24.6-24.6H163.4c-13.6,0-24.6,11-24.6,24.6
		v9.8C138.8,297.7,149.8,308.7,163.4,308.7z"/>
	<path class="st154" d="M1100.2,367.1v102.7c0,48-38.9,86.9-86.9,86.9H897.9V367.1H1100.2z"/>
	<path class="st154" d="M231.7,438.4v116.9H29.4v-30c0-48,38.9-86.9,86.9-86.9H231.7z"/>
	<path class="st157" d="M961.4,631.6c1.2,0.2,2.3,0.2,3.5,0.2H231.7v0.3H29.4v-76.9H965c-3.4,0-6.7,0.7-9.8,1.9
		c-12.8,5-22,19.4-22,36.4c0,10.6,3.6,20.2,9.3,27.1c2.9,3.5,6.5,6.4,10.4,8.3c0.3,0.2,0.7,0.3,1,0.5c0.4,0.2,0.9,0.4,1.3,0.6
		C957.2,630.8,959.3,631.4,961.4,631.6z"/>
	<path class="st155" d="M231.7,632.2v112.7H116.3c-2.5,0-5-0.1-7.5-0.3c-15-1.4-28.8-6.9-40.7-15.4c-23.4-16.9-38.8-21.9-38.8-54.6
		v-42.3H231.7z"/>
	<circle class="st158" cx="177.2" cy="213.4" r="126.1"/>
	<g>
		<ellipse class="st159" cx="639.5" cy="450.1" rx="53.2" ry="51.2"/>
		<ellipse class="st160" cx="639.5" cy="450.1" rx="46" ry="44.2"/>
		<path class="st159" d="M630.8,408.2h17.5c2,0,3.4,1.8,2.8,3.6l-8.5,26.2c-0.9,2.9-5.1,2.9-6.1,0l-8.5-26.2
			C627.4,410.1,628.8,408.2,630.8,408.2z"/>
		<path class="st159" d="M607.6,421.5l14-10c1.6-1.1,3.8-0.5,4.5,1.3l9.4,25.9c1,2.8-2.4,5.2-4.9,3.5L607.7,426
			C606.1,424.9,606.1,422.6,607.6,421.5z"/>
		<path class="st159" d="M597.4,445.4l5.1-16.1c0.6-1.8,2.8-2.6,4.4-1.5l23.6,15.5c2.6,1.7,1.3,5.6-1.8,5.6l-28.6,0.1
			C598.2,449,596.8,447.2,597.4,445.4z"/>
		<path class="st159" d="M682.2,445.3l-5.2-16c-0.6-1.8-2.8-2.5-4.4-1.5l-23.5,15.7c-2.6,1.7-1.3,5.6,1.8,5.6l28.6-0.1
			C681.4,448.9,682.8,447.1,682.2,445.3z"/>
		<path class="st159" d="M671.8,421.8l-13.8-10.2c-1.6-1.2-3.8-0.5-4.5,1.2l-9.9,25.8c-1.1,2.8,2.3,5.3,4.8,3.5l23.4-15.8
			C673.3,425.2,673.3,422.9,671.8,421.8z"/>
		<path class="st159" d="M630.8,491h17.5c2,0,3.4-1.8,2.8-3.6l-8.5-26.2c-0.9-2.9-5.1-2.9-6.1,0l-8.5,26.2
			C627.4,489.2,628.8,491,630.8,491z"/>
		<path class="st159" d="M607.6,477.8l14,10c1.6,1.1,3.8,0.5,4.5-1.3l9.4-25.9c1-2.8-2.4-5.2-4.9-3.5l-23.1,16.2
			C606.1,474.4,606.1,476.6,607.6,477.8z"/>
		<path class="st159" d="M597,454l5,16.1c0.6,1.8,2.8,2.6,4.4,1.5l23.7-15.3c2.6-1.7,1.4-5.5-1.7-5.6l-28.6-0.4
			C597.9,450.4,596.5,452.2,597,454z"/>
		<path class="st159" d="M682.2,454l-5,16.1c-0.6,1.8-2.8,2.6-4.4,1.5L649,456.4c-2.6-1.7-1.4-5.5,1.7-5.6l28.6-0.4
			C681.3,450.4,682.7,452.2,682.2,454z"/>
		<path class="st159" d="M671.8,477.5l-13.8,10.2c-1.6,1.2-3.8,0.5-4.5-1.2l-9.9-25.8c-1.1-2.8,2.3-5.3,4.8-3.5l23.4,15.8
			C673.3,474.1,673.3,476.3,671.8,477.5z"/>
	</g>
	<g>
		<g>
			<g>
				<path class="st161" d="M1067.9,679.9v5.8c-17.8-0.5-49.3-1-56.7-0.2c-3.6,0.4-7.5,0.6-11.7,0.6c-52.9,0-52.9-34-105.8-34
					c-31.9,0-44.6,12.4-61.2,22.2c-10.9,6.5-23.6,11.8-44.6,11.8c-50.3,0-52.8-30.7-98.2-33.8h-0.1c-2.4-0.2-4.9-0.3-7.5-0.3
					c-2.8,0-5.4,0.1-8,0.3h0c-45.1,3.2-47.7,33.8-97.8,33.8c-48.5,0-52.5-28.6-93.7-33.4h0c-3.7-0.4-7.7-0.7-12.1-0.7
					c-4.5,0-8.7,0.3-12.5,0.7h0c-40.8,4.9-44.9,33.3-93.3,33.3c-47.3,0-52.3-27.2-90.6-33c-4.6-0.7-9.6-1.1-15.3-1.1
					c-5.8,0-11,0.4-15.7,1.1c0,0,0,0,0,0c-4.2,0.7-8,1.6-11.5,2.7c-28,8.9-36.8,30.2-78.6,30.2c-35.1,0-46.9-15-66.3-25.1
					c-6.1-3.2-13-5.9-21.7-7.5h0c-5.2-0.9-11.1-1.5-17.7-1.5c-6.7,0-12.5,0.5-17.6,1.5c-0.1,0-0.1,0-0.2,0v-61.3
					c3.2-0.6,6.6-1,10.4-1.3c2.4-0.2,4.9-0.3,7.5-0.3c2.6,0,5.1,0.1,7.5,0.3c13.8,0.9,23.6,4.4,32,8.7c5.6,2.9,10.5,6.2,15.6,9.5h0
					c2.3,1.5,4.6,2.9,7.1,4.3c10.7,6.2,23.3,11.3,43.6,11.3c19.4,0,31.7-4.6,42-10.4c18-10,30.2-23.7,63.8-23.7
					c52.9,0,52.9,34,105.8,34c52.9,0,52.9-34,105.8-34c52.9,0,52.9,34,105.8,34c52.9,0,52.9-34,105.8-34c52.9,0,52.9,34,105.8,34
					c21,0,33.7-5.4,44.7-11.9c16.6-9.8,21.6-22,53.5-22c52.9,0,39.2,42.3,113.5,36.9c3.9-0.3,20.7-0.9,38,3.1
					C1055,634.9,1068.9,651.6,1067.9,679.9z"/>
			</g>
		</g>
	</g>
	<g>
		<polygon class="st29" points="620.3,713.7 504.3,713.7 483.3,446.6 641.4,446.6 		"/>
		<path class="st162" d="M445.1,420.8l53.3-30.8c7.9-1.8,15.8,3.2,17.6,11.2l65.1,293.1"/>
		<path class="st29" d="M619.3,503.4l-14.4,182.5c-0.5,5.8-5.3,10.3-11.1,10.3h-62.9c-5.8,0-10.6-4.5-11.1-10.3l-14.4-182.5H619.3z"
			/>
		<path class="st163" d="M619.3,503.4l-14.1,178.3c-0.6,8.1-7.4,14.4-15.6,14.4H535c-8.2,0-14.9-6.3-15.6-14.4l-14.1-178.3H619.3z"
			/>
		<polygon class="st164" points="622.4,464.2 619.3,503.4 505.4,503.4 502.3,464.2 		"/>
		<g>
			<circle class="st165" cx="537.7" cy="652.2" r="6.9"/>
			
				<ellipse transform="matrix(0.999 -4.407339e-002 4.407339e-002 0.999 -24.277 25.2511)" class="st165" cx="560.5" cy="563.2" rx="6.9" ry="6.9"/>
			
				<ellipse transform="matrix(0.999 -4.408032e-002 4.408032e-002 0.999 -26.2075 24.8266)" class="st165" cx="549.8" cy="606.7" rx="6.9" ry="6.9"/>
			<circle class="st165" cx="530.8" cy="535.1" r="6.9"/>
			<circle class="st165" cx="588" cy="617.1" r="6.9"/>
			<circle class="st165" cx="583.4" cy="676.1" r="6.9"/>
			<circle class="st165" cx="588" cy="533.3" r="6.9"/>
		</g>
		<path class="st166" d="M513.2,482.6h9.6c1.7,0,3.1,1.4,3.1,3.1l1.9,145c0,1.7-1.4,3.2-3.1,3.2l0,0c-1.6,0-3-1.3-3.1-2.9l-11.5-145
			C510,484.1,511.4,482.6,513.2,482.6z"/>
		<path class="st166" d="M539.3,482.6h7.7c2.5,0,4.5,1.7,4.5,3.7l-5.3,170.6c-0.1,2-2,3.6-4.5,3.6l0,0c-2.4,0-4.4-1.6-4.5-3.6
			l-2.4-170.6C534.8,484.2,536.8,482.6,539.3,482.6z"/>
		<rect x="498.4" y="446.6" class="st166" width="62.2" height="17.6"/>
		<polygon class="st168" points="560.6,446.6 560.6,713.7 620.3,713.7 641.4,446.6 		"/>
	</g>
	<g>
		<g>
			<path class="st166" d="M721.2,663.9c3.1-0.9,6.2-1.8,9.3-2.7c1.6-0.5,2.4-2.5,1.7-4.6C713,599,717.5,539,740.3,488.6
				c0.8-1.8,0.2-3.9-1.3-4.7l0,0c-1.5-0.7-3.3,0-4.2,1.7c-26.5,50.3-35.1,112.7-18.2,175C717.3,662.8,719.4,664.4,721.2,663.9z"/>
			<path class="st166" d="M746.3,656.4c2.5-0.8,4.9-1.6,7.4-2.4c2.4-0.8,3.6-3.2,2.8-5.4c-22.7-60.2-16.4-124.9,13.2-176.8
				c1-1.8,0.3-4.3-1.8-5.6l0,0c-2-1.4-4.6-1-5.8,0.9c-33.2,52.6-43.2,120.8-21.6,186.4C741.3,655.9,743.9,657.2,746.3,656.4z"/>
		</g>
	</g>
	<path class="st156" d="M1100.2,343v24.1h-207v-111h120.1C1061.3,256.1,1100.2,295,1100.2,343z"/>
	<path class="st29" d="M382.6,179.3h133.5c18.5,0,33.5-15,33.5-33.5v-3.6c0-18.5-15-33.5-33.5-33.5H382.6c-18.5,0-33.5,15-33.5,33.5
		v3.6C349.1,164.3,364.1,179.3,382.6,179.3z"/>
	<g>
		
			<rect x="680.9" y="78.7" transform="matrix(0.9719 0.2353 -0.2353 0.9719 111.9375 -152.0062)" class="st169" width="23.8" height="628.5"/>
		<polygon class="st170" points="766.1,89.3 778.3,90.4 630.4,701.2 618.6,698.3 		"/>
		<g>
			<path class="st171" d="M763.2,9.4c-59.4,48.8-118.7,97.1-179.1,150.3c-5,8.5-13.5,14-23.6,12.2c-52.6-9.4-105.4-17.4-158.5-24.2
				c-10.2-1.3-15.4-11.3-10.4-19.9c0.4-1.7,85.2-39.1,169.9-67.9C646.6,29.6,731.5,8,739.3,3.5C754.3-1.7,760.7-2.1,763.2,9.4z"/>
			<path class="st172" d="M794.8,14.3c33.7,71.7,67.5,142.7,100,218.8c0.7,9.8,5.8,18.6,15.6,21.5c51.2,15.1,102.1,31.6,152.6,49.2
				c9.7,3.4,18.8-3.2,18.2-13.2c-59.4-73.8-106-121.4-141.3-156.5c-35.4-34.8-59.5-57.2-76.1-72.8c-32.9-31.9-36.1-34.3-42-40.8
				C810.9,9,802.2,5.1,794.8,14.3z"/>
			<path class="st173" d="M793.7,15.5c13.2,66.4,26.4,132.7,39.3,200.7c0.8,8.4-7.7,14.4-17.1,11.9c-56.3-14.8-113-28.1-170.1-39.8
				c-9.5-1.9-14.5-11.1-10-18.3c43.9-55,87.3-107.9,130.8-160.9C773.2-1.3,792.4,3.2,793.7,15.5z"/>
			<path class="st134" d="M770.7,8.6c-41,54.1-82.1,108.1-123.5,163.8c-4.9,8.2-13.4,13.5-23.4,11.5c-52.4-10.4-105-19.5-157.9-27.3
				c-10.2-1.5-15.4-11.1-10.5-19.3c0.2-1.1,70.3-37.8,140.8-68.9c70.8-32.2,142-58.8,149.8-62.6C760.9,0.4,768.2-2.9,770.7,8.6z"/>
			<path class="st174" d="M790.6,13.3c12.5,66.8,25.1,133.4,37.2,201.6c0.7,9.5,5.9,18,15.8,20.7c51.5,14,102.7,29.4,153.5,45.9
				c9.8,3.2,18.8-3,18.1-12.5c0.3-1.1-46.3-65.4-95.7-125.1C870.3,83.1,818.3,27,813,20.1C802,8.6,797.9,4.1,790.6,13.3z"/>
		</g>
		<path class="st18" d="M1081.3,290.6c-59.4-73.8-106-121.4-141.3-156.5c-35.4-34.8-59.5-57.2-76.1-72.8
			c-32.9-31.9-36.1-34.3-42-40.8c-7.9-8.2-14.5-12.5-20.4-11c-3.2-1.8-5.9-1.5-9.1,1.7c-1.8-3.5-5.2-5.9-9.1-7.1
			c-0.1,0-0.2,0-0.2-0.1l-49.3,203.7c27.4,6.5,54.8,13.3,82.1,20.4c5.8,1.5,11.3-0.2,14.5-3.7c2.5,5.3,7,9.4,13.3,11.2
			c24.1,6.6,48.1,13.4,72,20.5c3.2,1,6.4,1.9,9.6,2.9c3.2,1,6.4,1.9,9.6,2.9c3.2,1,6.4,1.9,9.6,2.9c3.2,1,6.4,2,9.6,3
			c3.2,1,6.4,2,9.6,3c3.2,1,6.4,2,9.6,3c3.2,1,6.4,2,9.5,3c3.2,1,6.4,2.1,9.6,3.1c23.7,7.7,47.4,15.7,71,23.9
			C1072.8,307.2,1081.9,300.6,1081.3,290.6z"/>
	</g>
	<g>
		<path class="st29" d="M925.6,491.7c14-19.9,17.8-44.6,10-64.6c-5.8-14.8-17.7-25.1-32.5-28.2c-32.9-6.9-46.5,11.1-52.8,26.2
			c0-10.1,5-18.9,17-27.5c6.5-4.6,9.3-19.6-6.8-20.5c-8.3-0.5-38.2,5-70.9,2V379c-30.7-0.5-65.3-18.9-73.8-18.4
			c-16.1,1-6.6,17.4-0.5,22.5c43.5,36.2,1.4,70.6-38.1,132.5C632,586.2,721.3,670.5,730,685.5c-3.6,0.8-6.2,4-6.2,7.8v0.2
			c0,4.4,3.6,8,8,8h112.3c4.4,0,8-3.6,8-8v-0.2c0-3.4-2.1-6.3-5.2-7.5c7-13,84.8-86.2,61.4-153.2c0.1-0.2,0.3-0.4,0.4-0.6
			C910.7,528.3,907.9,516.8,925.6,491.7z M896.5,510.2c-16.6-25.5-31.3-45.3-39.5-61.7c2.3-1,4.1-2.9,4.8-5.5
			c4.7-17.9,11.2-33.4,37.8-27.8c9.4,2,16.7,8.4,20.5,18c5.8,14.8,2.7,33.6-8.1,49C904.3,493.2,899.5,502.6,896.5,510.2z"/>
		<path class="st175" d="M743.7,657.2c-1.3-1.6-2.7-3.3-4.4-5.3c-10.7-13-28.7-34.7-39.4-58.8c-11.7-26.4-11.7-48.2,0.2-66.8
			c7.2-11.3,14.5-21.5,21.5-31.3c14.5-20.4,27.1-38,31.9-55.8c3.8-14,2.6-26.9-3.7-38.8c6.7,2.1,14,4,21.5,5.3v0.4l7,0.6
			c2.3,0.3,4.5,0.5,6.8,0.6l2.8,0.3c6.6,0.6,13.7,0.9,21,0.9c10,0,19.1-0.6,26.7-1.2c-7.7,11.2-9.7,24.1-5.9,38.5
			c4.3,16.2,15.7,33.1,30.2,54.6c5.5,8.1,11.2,16.5,17.2,25.9c11.8,18.5,11.9,40.4,0.2,66.8c-10.7,24.1-28.7,45.8-39.4,58.8
			c-1.6,2-3.1,3.7-4.4,5.3H743.7z"/>
		<path class="st176" d="M876.5,592.4c-10.7,24.1-28.7,45.8-39.4,58.8c-1.6,2-3.1,3.7-4.4,5.3h-89.7c-1.1-1.4-2.4-2.9-3.8-4.6
			c-10.7-13-28.7-34.7-39.4-58.8c-8.3-18.7-10.7-35-7.2-49.6h191.1C887.1,557.9,884.7,574,876.5,592.4z"/>
		<path class="st29" d="M876.5,592.4c-10.7,24.1-28.7,45.8-39.4,58.8c-1.6,2-3.1,3.7-4.4,5.3H743c-1.3-1.6-2.7-3.3-4.4-5.3
			c-10.7-13-28.7-34.7-39.4-58.8c-8.1-18.4-10.6-34.5-7.3-48.9h192C887.1,557.9,884.7,574,876.5,592.4z"/>
		<path class="st163" d="M876.5,592.4c-10.7,24.1-28.7,45.8-39.4,58.8c-1.6,2-3.1,3.7-4.4,5.3H743c-1.3-1.6-2.7-3.3-4.4-5.3
			c-10.7-13-28.7-34.7-39.4-58.8c-8.1-18.4-10.6-34.5-7.3-48.9h192C887.1,557.9,884.7,574,876.5,592.4z"/>
		<g class="st177">
			<circle class="st178" cx="723.1" cy="559.2" r="8.9"/>
			<circle class="st178" cx="817.7" cy="559.8" r="8.2"/>
			<circle class="st178" cx="791.5" cy="603.1" r="8.2"/>
			<circle class="st178" cx="819.1" cy="631.7" r="8.2"/>
			<circle class="st178" cx="760.7" cy="639.9" r="8.2"/>
			<circle class="st178" cx="858.8" cy="567.3" r="8.2"/>
		</g>
		<g>
			<path class="st159" d="M790.2,529.2L714.3,605c-21.1-21.1-21.2-55.2-0.2-76.1C735.1,507.9,769.2,508,790.2,529.2z"/>
			<path class="st160" d="M785.1,534.3l-65.6,65.5c-18.2-18.3-18.3-47.7-0.2-65.8C737.4,515.9,766.9,516,785.1,534.3z"/>
			<path class="st159" d="M714.8,542l12.5-12.4c1.4-1.4,3.8-1,4.7,0.7l13.5,25.7c1.5,2.8-1.5,5.8-4.3,4.3l-25.6-13.6
				C713.8,545.8,713.4,543.4,714.8,542z"/>
			<path class="st159" d="M708.2,568.4l2.6-17.5c0.3-2,2.4-3.1,4.2-2.2l26.1,12.7c2.8,1.4,2.2,5.6-0.9,6.1l-28.6,4.3
				C709.6,572.1,707.9,570.4,708.2,568.4z"/>
			<path class="st159" d="M718.7,593.6l-8.3-15.7c-0.9-1.8,0.1-3.9,2-4.3l28.4-5.2c3.1-0.6,5.1,3.2,2.9,5.4l-20.3,20.4
				C722,595.7,719.7,595.4,718.7,593.6z"/>
			<path class="st159" d="M779.2,533.1l-15.7-8.2c-1.8-0.9-3.9,0.1-4.3,2.1l-5.1,28.4c-0.6,3.1,3.2,5.1,5.4,2.9l20.3-20.4
				C781.3,536.4,781,534,779.2,533.1z"/>
			<path class="st159" d="M754.2,522.9l-17.5,2.2c-2,0.2-3.1,2.3-2.3,4.1l12.2,26.3c1.3,2.9,5.5,2.3,6.1-0.8l4.9-28.5
				C757.8,524.4,756.1,522.7,754.2,522.9z"/>
		</g>
		<g>
			<path class="st159" d="M802.5,594.4l59.6-65.1c18.1,16.6,19.5,44.6,3,62.6C848.7,609.8,820.7,611,802.5,594.4z"/>
			<path class="st160" d="M806.6,590l51.5-56.3c15.7,14.3,16.8,38.5,2.6,54.1C846.5,603.3,822.2,604.3,806.6,590z"/>
			<path class="st159" d="M864,581l-9.8,10.7c-1.1,1.2-3.1,1-3.9-0.4l-12.1-20.6c-1.3-2.2,1-4.8,3.4-3.7l21.6,10.2
				C864.7,577.9,865.1,579.8,864,581z"/>
			<path class="st159" d="M868.5,559.1l-1.4,14.5c-0.2,1.6-1.9,2.6-3.4,2l-21.9-9.4c-2.4-1-2-4.5,0.5-5l23.3-4.6
				C867.2,556.1,868.7,557.4,868.5,559.1z"/>
			<path class="st159" d="M858.9,538.7l7.4,12.6c0.8,1.4,0.1,3.2-1.5,3.6l-23.1,5.3c-2.5,0.6-4.3-2.4-2.6-4.4l15.9-17.5
				C856.1,537.1,858.1,537.3,858.9,538.7z"/>
			<path class="st159" d="M811.5,590.8l13.2,6.2c1.5,0.7,3.2-0.2,3.4-1.9l3.1-23.6c0.3-2.6-2.8-4.1-4.6-2.1l-15.9,17.5
				C809.6,588.1,810,590.1,811.5,590.8z"/>
			<path class="st159" d="M832.4,598.2l14.3-2.5c1.6-0.3,2.5-2,1.7-3.5l-11-21.2c-1.2-2.3-4.6-1.7-5,0.9l-2.9,23.6
				C829.4,597.1,830.8,598.4,832.4,598.2z"/>
		</g>
	</g>
	<g>
		<path class="st29" d="M102.9,794.5L102.9,794.5c-13.7,0-24.7-11.1-24.7-24.7v-68h49.5v68C127.6,783.4,116.5,794.5,102.9,794.5z"/>
		<path class="st174" d="M152.4,794.5L152.4,794.5c-13.7,0-24.7-11.1-24.7-24.7v-68h49.5v68C177.1,783.4,166,794.5,152.4,794.5z"/>
		<path class="st174" d="M53.5,794.5L53.5,794.5c-13.7,0-24.7-11.1-24.7-24.7v-68h49.5v68C78.3,783.4,67.2,794.5,53.5,794.5z"/>
		<path class="st29" d="M201.9,794.5L201.9,794.5c-13.7,0-24.7-11.1-24.7-24.7v-68h49.5v68C226.6,783.4,215.5,794.5,201.9,794.5z"/>
		<path class="st174" d="M251.4,794.5L251.4,794.5c-13.7,0-24.7-11.1-24.7-24.7v-68h49.5v68C276.1,783.4,265,794.5,251.4,794.5z"/>
		<path class="st29" d="M300.9,794.5L300.9,794.5c-13.7,0-24.7-11.1-24.7-24.7v-68h49.5v68C325.6,783.4,314.5,794.5,300.9,794.5z"/>
		<path class="st174" d="M350.3,794.5L350.3,794.5c-13.7,0-24.7-11.1-24.7-24.7v-68h49.5v68C375.1,783.4,364,794.5,350.3,794.5z"/>
		<path class="st29" d="M399.8,794.5L399.8,794.5c-13.7,0-24.7-11.1-24.7-24.7v-68h49.5v68C424.6,783.4,413.5,794.5,399.8,794.5z"/>
		<path class="st174" d="M449.3,794.5L449.3,794.5c-13.7,0-24.7-11.1-24.7-24.7v-68h49.5v68C474.1,783.4,463,794.5,449.3,794.5z"/>
		<path class="st29" d="M498.8,794.5L498.8,794.5c-13.7,0-24.7-11.1-24.7-24.7v-68h49.5v68C523.6,783.4,512.5,794.5,498.8,794.5z"/>
		<path class="st174" d="M548.3,794.5L548.3,794.5c-13.7,0-24.7-11.1-24.7-24.7v-68h49.5v68C573.1,783.4,562,794.5,548.3,794.5z"/>
		<path class="st29" d="M597.8,794.5L597.8,794.5c-13.7,0-24.7-11.1-24.7-24.7v-68h49.5v68C622.6,783.4,611.5,794.5,597.8,794.5z"/>
		<path class="st174" d="M647.3,794.5L647.3,794.5c-13.7,0-24.7-11.1-24.7-24.7v-68h49.5v68C672.1,783.4,661,794.5,647.3,794.5z"/>
		<path class="st29" d="M696.8,794.5L696.8,794.5c-13.7,0-24.7-11.1-24.7-24.7v-68h49.5v68C721.6,783.4,710.5,794.5,696.8,794.5z"/>
		<path class="st174" d="M746.3,794.5L746.3,794.5c-13.7,0-24.7-11.1-24.7-24.7v-68H771v68C771,783.4,760,794.5,746.3,794.5z"/>
		<path class="st29" d="M795.8,794.5L795.8,794.5c-13.7,0-24.7-11.1-24.7-24.7v-68h49.5v68C820.5,783.4,809.5,794.5,795.8,794.5z"/>
		<path class="st174" d="M845.3,794.5L845.3,794.5c-13.7,0-24.7-11.1-24.7-24.7v-68H870v68C870,783.4,859,794.5,845.3,794.5z"/>
		<path class="st29" d="M894.8,794.5L894.8,794.5c-13.7,0-24.7-11.1-24.7-24.7v-68h49.5v68C919.5,783.4,908.4,794.5,894.8,794.5z"/>
		<path class="st29" d="M993.8,794.5L993.8,794.5c-13.7,0-24.7-11.1-24.7-24.7v-68h49.5v68C1018.5,783.4,1007.4,794.5,993.8,794.5z"
			/>
		<path class="st174" d="M944.3,794.5L944.3,794.5c-13.7,0-24.7-11.1-24.7-24.7v-68H969v68C969,783.4,957.9,794.5,944.3,794.5z"/>
		<path class="st174" d="M1043.3,794.5L1043.3,794.5c-13.7,0-24.7-11.1-24.7-24.7v-68h49.5v68C1068,783.4,1056.9,794.5,1043.3,794.5
			z"/>
	</g>
	<path class="st168" d="M925.7,491.6c14-19.9,17.8-44.6,10-64.6c-5.8-14.8-17.7-25.1-32.5-28.2c-32.9-6.9-46.5,11.1-52.8,26.2
		c0-10.1,5-18.9,17-27.5c6.5-4.6,9.3-19.6-6.8-20.5c-8.3-0.5-38.2,5-70.9,2v322.3h54.6c4.4,0,8-3.6,8-8v-0.2c0-3.4-2.1-6.3-5.2-7.5
		c7-13,84.8-86.2,61.4-153.2c0.1-0.2,0.3-0.4,0.4-0.6C910.9,528.1,908,516.7,925.7,491.6z M896.7,510
		c-16.6-25.5-31.3-45.3-39.5-61.7c2.3-1,4.1-2.9,4.8-5.5c4.7-17.9,11.2-33.4,37.8-27.8c9.4,2,16.7,8.4,20.5,18
		c5.8,14.8,2.7,33.6-8.1,49C904.4,493,899.6,502.4,896.7,510z"/>
</g>
</svg>
